<?xml version="1.0" encoding="UTF-8" standalone="no"?>
<!-- Created with Inkscape (http://www.inkscape.org/) -->
<svg id="svg2" xmlns:rdf="http://www.w3.org/1999/02/22-rdf-syntax-ns#" xmlns="http://www.w3.org/2000/svg" height="347.56" viewBox="0 0 291.93375 347.56232" width="291.93" version="1.1" xmlns:cc="http://creativecommons.org/ns#" xmlns:dc="http://purl.org/dc/elements/1.1/">
 <metadata id="metadata7">
  <rdf:RDF>
   <cc:Work rdf:about="">
    <dc:format>image/svg+xml</dc:format>
    <dc:type rdf:resource="http://purl.org/dc/dcmitype/StillImage"/>
    <dc:title/>
   </cc:Work>
  </rdf:RDF>
 </metadata>
 <ellipse id="path4205" rx="75.383" ry="5.3664" cy="295.3" cx="112.5" stroke-width=".50001" fill="#d1d2d4"/>
 <g fill-rule="evenodd" stroke="#2e3034" stroke-width=".50001" fill="#2e3034">
  <path id="path4209" d="m80.3 313.55v-8.3338h-31.441c-17.703 3.4236-18.437 37.772 0 40.532h32.072v-24.37h-19.067v9.3439h9.3439v8.0812h-18.814c-11.06-2.6946-9.7778-23.804 0-25.191z"/>
  <path id="path4211" d="m88.6 346.71h9.6429l0.1894-28.11c0.13287-6.9139 8.4296-5.625 14.821-5.625l-0.1894 33.02h10.179l-0.12627-33.077c8.4403-0.3663 15.037 0.23899 15.037 5.6665v28.482h9.5536l-0.1894-31.25c-0.41267-2.4982-1.2925-4.8955-3.8857-7.0583-3.9598-3.9242-14.561-3.986-25.133-4.0112-10.546-0.0251-21.063-0.0226-24.681 3.255-2.7331 2.0601-5.1339 4.242-5.2131 9.3681z"/>
  <path id="path4213" d="m156.31 304.84h40.785v7.955h-16.289v25.885h15.91v7.8287h-40.406v-7.7024h15.784v-26.011l-15.847 0.03z"/>
 </g>
 <g stroke-width=".50001" fill-rule="evenodd">
  <path id="path4150" d="m41.61 250.27c7.632-15.786 16.382-31.644 25.767-45.42 14.328-21.033 30.312-38.37 45.874-54.653 15.587-16.31 30.995-30.381 44.571-42.372 11.619-9.4949 20.55-16.81 27.363-24.868 4.1175-4.8699 7.5624-11.315 11.663-19.549-58.008-42.607-120.88-26.699-158.14 7.5353-45.793 42.075-56.922 125.53 2.8981 179.33z" stroke="#a5aeb0" fill="#a5aeb0"/>
  <path id="path4152" d="m196.45 53.5 10.089-9.5536 19.196 8.4821 7.5893-11.964c12.825 3.164 23.322-12.2 22.232-21.339l7.1429-3.75c0.77922-3.8745 1.8434-7.6421 3.5714-11.161l3.3036-3.4822 10.179 10.536-54.554 56.071z" stroke="#a5aeb0" fill="#a5aeb0"/>
  <path id="path4152-5" d="m239.42 96.06 8.758-9.972-7.3608-19.064 11.767-7.8913c-2.3287-12.651 10.665-22.465 19.561-21.875l5.0402-8.3074c6.0931-1.1893 7.6364-2.0851 10.263-3.0507l3.7541-3.2572-10.836-10.755-54.442 56.052z" stroke="#2e3034" fill="#2e3034"/>
  <path id="path4180" d="m42.701 250.53 182.46-181.97l11.743 24.749c-13.287 4.5847-22.513 9.4891-32.867 19.275-12.4 11.72-23.691 26.335-36.212 40.727-14.395 16.546-30.093 32.878-45.557 45.531-18.699 16.265-40.982 32.206-62.836 43.722-6.4624 3.4053-9.8419 5.0637-16.732 7.9631z" stroke="#a5aeb0" fill="#a5aeb0"/>
  <path id="path4150-8" d="m42.74 251.23c15.331-7.6433 32.962-16.948 46.319-26.301 20.393-14.279 38.307-28.645 54.059-44.1 15.778-15.481 28.996-31.778 40.579-45.244 9.1648-11.518 16.857-19.362 24.659-26.136 4.7154-4.094 10.089-7.9174 18.084-12.022 12.108 19.048 16.195 38.332 16.946 59.811 2.0819 59.535-42.626 120.78-119.91 123.2-33.38 0.23087-62.309-10.521-80.737-29.204z" stroke="#2e3034" fill="#2e3034"/>
 </g>
 <path id="path4180-1" d="m42.582 250.3 181.98-182.4-24.86-11.825c-4.546 13.3-9.5744 22.767-19.33 33.149-11.387 11.767-25.674 21.078-41.225 36.33-15.657 15.357-32.187 30.189-44.795 45.689-16.21 18.746-32.087 41.076-43.539 62.963-3.3865 6.4723-5.3544 9.1969-8.2338 16.095z" fill-rule="evenodd" stroke="#f9f9f9" stroke-width=".50001" fill="#f9f9f9"/>
</svg>
