<?xml version="1.0" encoding="UTF-8" standalone="no"?>
<!-- Created with Inkscape (http://www.inkscape.org/) -->

<svg
   xmlns:dc="http://purl.org/dc/elements/1.1/"
   xmlns:cc="http://creativecommons.org/ns#"
   xmlns:rdf="http://www.w3.org/1999/02/22-rdf-syntax-ns#"
   xmlns:svg="http://www.w3.org/2000/svg"
   xmlns="http://www.w3.org/2000/svg"
   xmlns:sodipodi="http://sodipodi.sourceforge.net/DTD/sodipodi-0.dtd"
   xmlns:inkscape="http://www.inkscape.org/namespaces/inkscape"
   id="svg2"
   height="280.31726"
   width="291.32178"
   version="1.1"
   viewBox="0 0 291.32553 280.31913"
   inkscape:version="0.91 r13725"
   sodipodi:docname="LogoBWNoLetters.svg">
  <defs
     id="defs4158" />
  <sodipodi:namedview
     pagecolor="#ffffff"
     bordercolor="#666666"
     borderopacity="1"
     objecttolerance="10"
     gridtolerance="10"
     guidetolerance="10"
     inkscape:pageopacity="0"
     inkscape:pageshadow="2"
     inkscape:window-width="1920"
     inkscape:window-height="1137"
     id="namedview4156"
     showgrid="false"
     inkscape:zoom="1.6572678"
     inkscape:cx="-42.947348"
     inkscape:cy="23.153504"
     inkscape:window-x="1358"
     inkscape:window-y="-8"
     inkscape:window-maximized="1"
     inkscape:current-layer="svg2"
     fit-margin-top="0"
     fit-margin-left="0"
     fit-margin-right="0"
     fit-margin-bottom="0" />
  <metadata
     id="metadata7">
    <rdf:RDF>
      <cc:Work
         rdf:about="">
        <dc:format>image/svg+xml</dc:format>
        <dc:type
           rdf:resource="http://purl.org/dc/dcmitype/StillImage" />
        <dc:title></dc:title>
      </cc:Work>
    </rdf:RDF>
  </metadata>
  <path
     id="path4150"
     d="m 41.365738,249.89814 c 7.632,-15.786 16.382,-31.644 25.767,-45.42 14.328,-21.033 30.312,-38.37 45.874002,-54.653 15.587,-16.31 30.995,-30.381 44.571,-42.372 11.619,-9.494898 20.55,-16.809998 27.363,-24.867998 4.1175,-4.8699 7.5624,-11.315 11.663,-19.549 -58.008,-42.607 -120.880002,-26.699 -158.140002,7.5353 -45.7930004,42.074998 -56.922,125.529998 2.8981,179.329998 z"
     inkscape:connector-curvature="0"
     style="fill:#a5aeb0;fill-opacity:1;fill-rule:evenodd;stroke:#a5aeb0;stroke-width:0.50000644;stroke-opacity:1" />
  <path
     id="path4152"
     d="m 196.20574,53.128142 10.089,-9.5536 19.196,8.4821 7.5893,-11.964 c 12.825,3.164 23.322,-12.2 22.232,-21.339 l 7.1429,-3.75 c 0.77922,-3.8745 1.8434,-7.6420996 3.5714,-11.1609996 l 3.3036,-3.48220004 10.179,10.53599964 -54.554,56.071 z"
     inkscape:connector-curvature="0"
     style="fill:#a5aeb0;fill-opacity:1;fill-rule:evenodd;stroke:#a5aeb0;stroke-width:0.50000644;stroke-opacity:1" />
  <path
     id="path4152-5"
     d="m 239.17574,95.688142 8.758,-9.972 -7.3608,-19.064 11.767,-7.8913 c -2.3287,-12.651 10.665,-22.465 19.561,-21.875 l 5.0402,-8.3074 c 6.0931,-1.1893 7.6364,-2.0851 10.263,-3.0507 l 3.7541,-3.2572 -10.836,-10.755 -54.442,56.052 z"
     inkscape:connector-curvature="0"
     style="fill:#2e3034;fill-opacity:1;fill-rule:evenodd;stroke:#2e3034;stroke-width:0.50000644;stroke-opacity:1" />
  <path
     id="path4180"
     d="M 42.456591,250.15841 224.91946,68.191553 l 11.743,24.749 c -13.287,4.5847 -22.513,9.489097 -32.867,19.274997 -12.4,11.72 -23.691,26.335 -36.212,40.727 -14.395,16.546 -30.093,32.878 -45.557,45.531 -18.699,16.265 -40.982001,32.206 -62.836001,43.722 -6.4624,3.4053 -9.841868,5.06366 -16.731868,7.96306 z"
     inkscape:connector-curvature="0"
     style="fill:#a5aeb0;fill-opacity:1;fill-rule:evenodd;stroke:#a5aeb0;stroke-width:0.50000644;stroke-opacity:1"
     sodipodi:nodetypes="ccccscscc" />
  <path
     style="fill:#2e3034;fill-opacity:1;fill-rule:evenodd;stroke:#2e3034;stroke-width:0.50000644;stroke-opacity:1"
     inkscape:connector-curvature="0"
     d="m 42.495738,250.85814 c 15.331,-7.6433 32.962,-16.948 46.319,-26.301 20.393002,-14.279 38.307002,-28.645 54.059002,-44.1 15.778,-15.481 28.996,-31.778 40.579,-45.244 9.1648,-11.518 16.857,-19.362 24.659,-26.136 4.7154,-4.094 10.089,-7.9174 18.084,-12.021998 12.108,19.047998 16.195,38.331998 16.946,59.810998 2.0819,59.535 -42.626,120.78 -119.91,123.2 -33.380002,0.23087 -62.309002,-10.521 -80.737002,-29.204 z"
     id="path4150-8" />
  <path
     id="path4180-1"
     d="M 42.33729,249.93209 224.3179,67.524452 199.45939,55.702705 c -4.54599,13.300291 -9.57437,22.766809 -19.33008,33.149257 -11.38729,11.766798 -25.67408,21.078268 -41.22481,36.330408 -15.65744,15.35679 -32.18684,30.18859 -44.794769,45.68936 -16.21049,18.74628 -32.086546,41.07559 -43.538871,62.96302 -3.38647,6.4723 -5.354447,9.19693 -8.233776,16.09534 z"
     inkscape:connector-curvature="0"
     style="fill:#f9f9f9;fill-rule:evenodd;stroke:#f9f9f9;stroke-width:0.50000644"
     sodipodi:nodetypes="ccccscscc" />
</svg>
